<svg height="512" viewBox="0 0 64 64" width="512" xmlns="http://www.w3.org/2000/svg"><g id="Filled_outline" data-name="Filled outline"><path d="m46 47h13a2 2 0 0 1 2 2 2 2 0 0 1 -2 2h-13a0 0 0 0 1 0 0v-4a0 0 0 0 1 0 0z" fill="#d3843d"/><path d="m19 47h10v4h-10z" fill="#d3843d"/><path d="m28 16h12v10h-12z" fill="#ffd782"/><path d="m25 12h18v4h-18z" fill="#b459a1"/><path d="m40 12-9-9h-5l-5 5h7v4z" fill="#5e2c81"/><path d="m44 45 3-3 2 2a2.122 2.122 0 0 1 0 3 2.122 2.122 0 0 1 -3 0z" fill="#ffd782"/><path d="m47 42-7-7v-5h-12v19a6 6 0 0 0 6 6h12v-8l-2-2z" fill="#5e2c81"/><path d="m25 55h18a0 0 0 0 1 0 0 4 4 0 0 1 -4 4h-14a0 0 0 0 1 0 0v-4a0 0 0 0 1 0 0z" fill="#ffd782"/><path d="m23 61h-4l2-6h4v4z" fill="#394d5c"/><path d="m3 43h12a4 4 0 0 1 4 4v4a4 4 0 0 1 -4 4h-12a0 0 0 0 1 0 0v-12a0 0 0 0 1 0 0z" fill="#f9bb4b"/><path d="m11 43h4v12h-4z" fill="#ad6327"/><path d="m34 16-6 6v4l-3 3a7.072 7.072 0 0 1 -10 0l8-8 2-5z" fill="#394d5c"/><path d="m35 19h2v2h-2z"/><path d="m25 11a1 1 0 0 0 -1 1v3.807l-1.852 4.631-7.855 7.855a1 1 0 0 0 0 1.414 8.071 8.071 0 0 0 11.414 0l2.707-2.707h11.586a1 1 0 0 0 1-1v-9h2a1 1 0 0 0 1-1v-4a1 1 0 0 0 -1-1h-2.586l-8.707-8.707a1 1 0 0 0 -.707-.293h-5a1 1 0 0 0 -.707.293l-5 5a1 1 0 0 0 .707 1.707h6v2zm2.293 10.293a1 1 0 0 0 -.293.707v3.586l-2.707 2.707a6.074 6.074 0 0 1 -7.821.649l7.235-7.235a1.01 1.01 0 0 0 .222-.336l1.748-4.371h5.909zm11.707 3.707h-10v-2.586l5.414-5.414h4.586zm-15.586-18 3-3h4.172l7 7h-8.586v-3a1 1 0 0 0 -1-1zm18.586 6v2h-16v-2z"/><path d="m59 46h-8.427a3.184 3.184 0 0 0 .049-.5 3.1 3.1 0 0 0 -.915-2.207l-8.707-8.707v-4.586a1 1 0 0 0 -1-1h-12a1 1 0 0 0 -1 1v16h-7.1a5.009 5.009 0 0 0 -4.9-4h-12a1 1 0 0 0 -1 1v12a1 1 0 0 0 1 1h12a5.009 5.009 0 0 0 4.9-4h7.786a7.016 7.016 0 0 0 1.426 2h-8.112a1 1 0 0 0 -.949.684l-2 6a1 1 0 0 0 .949 1.316h4a1 1 0 0 0 .707-.293l1.707-1.707h13.586a5.009 5.009 0 0 0 4.9-4h2.1a1 1 0 0 0 1-1v-3h12a3.015 3.015 0 0 0 3-3 3 3 0 0 0 -3-3zm-49 8h-6v-2h4v-2h-4v-2h4v-2h-4v-2h6zm4 0h-2v-10h2zm4-3a3 3 0 0 1 -2 2.816v-9.632a3 3 0 0 1 2 2.816zm2-1v-2h7v1a7.026 7.026 0 0 0 .08 1zm4 8.586-1.414 1.414h-2.2l1.334-4h2.28zm15-.586h-13v-2h15.829a3.006 3.006 0 0 1 -2.829 2zm6-4h-11a5.006 5.006 0 0 1 -5-5v-18h10v4a1 1 0 0 0 .293.707l6.293 6.293-1.586 1.586-7-7v-3.586h-2v4a1 1 0 0 0 .293.707l9.707 9.707zm1.707-7.707-1.293-1.293 1.586-1.586 1.293 1.293a1.121 1.121 0 0 1 -1.586 1.586zm12.987 3.42a.965.965 0 0 1 -.694.287h-12v-1.429a2.97 2.97 0 0 0 2.348-.571h9.652a1 1 0 0 1 1 1 .978.978 0 0 1 -.306.713z"/><path d="m4 20h14v2h-14z"/><path d="m6 16h16v2h-16z"/></g></svg>