<?xml version="1.0" encoding="iso-8859-1"?>
<!-- Generator: Adobe Illustrator 16.0.0, SVG Export Plug-In . SVG Version: 6.00 Build 0)  -->
<!DOCTYPE svg PUBLIC "-//W3C//DTD SVG 1.1//EN" "http://www.w3.org/Graphics/SVG/1.1/DTD/svg11.dtd">
<svg version="1.1" id="Capa_1" xmlns="http://www.w3.org/2000/svg" xmlns:xlink="http://www.w3.org/1999/xlink" x="0px" y="0px"
	 width="93.455px" height="93.455px" fill="#ffffff" viewBox="0 0 93.455 93.455" style="enable-background:new 0 0 93.455 93.455;"
	 xml:space="preserve">
<g>
	<g>
		<path d="M48.295,12.005L48.293,0L31.881,16.415l16.414,16.414v-11.91c16.826,0.821,30.264,14.765,30.264,31.792
			c0,17.551-14.28,31.83-31.832,31.83c-17.553,0-31.832-14.279-31.832-31.83c0-3.886,0.69-7.679,2.054-11.273l-8.334-3.159
			c-1.747,4.607-2.632,9.464-2.632,14.433c0,22.466,18.278,40.743,40.745,40.743c22.465,0,40.745-18.277,40.745-40.743
			C87.473,30.769,70.037,12.834,48.295,12.005z"/>
		<circle cx="46.728" cy="52.317" r="11.147"/>
	</g>
</g>
<g>
</g>
<g>
</g>
<g>
</g>
<g>
</g>
<g>
</g>
<g>
</g>
<g>
</g>
<g>
</g>
<g>
</g>
<g>
</g>
<g>
</g>
<g>
</g>
<g>
</g>
<g>
</g>
<g>
</g>
</svg>
