<svg height="512" viewBox="0 0 512 512" width="512" xmlns="http://www.w3.org/2000/svg"><g><path d="m72 496 32-24 16 24 32-40 16 24 24-40 32-56-96 8h-48l16 16-40 8 16 24-56 40v16z" fill="#aedef8"/><path d="m120 472 40-40 8 24 56-72-112 16 16 16-48 8 16 16-80 56h40l56-40z" fill="#87d3f4"/><path d="m192 368-35.716-35.716a40 40 0 0 0 -56.568 0l-83.716 83.716v-40l69.574-69.574a60 60 0 0 1 84.852 0l45.574 45.574z" fill="#fcc200"/><path d="m352 248c-28.956-6.693-92.132-22.793-121.088-29.486-4.053-.936-8.226-1.926-11.6-4.357s-5.789-6.7-4.786-10.733c.963-3.879 4.813-6.5 8.742-7.225s7.963.054 11.882.837l78.544 15.694c1.14 9.136 37.164 26.134 38.306 35.27z" fill="#eaaa94"/><path d="m333.6 236.766c-5.235.383-10.757 2.473-15.844 3.656l-46.77 10.878c-13.379 3.111-30.07 10.174-43.749 10.174-5.319 1.237-10.955 2.649-14.733 6.592s-4.482 11.308.025 14.392c2.875 1.966 6.691 1.567 10.142 1.089l84.546-11.723c-5.407 5.442-10.725 10.075-16.133 15.517-7.192-2.136-17.915.149-23.021 5.646a20.719 20.719 0 0 0 -4.1 20.972c-17.871 16.4-22 21.309-39.87 37.708 10.122 11.556 19.138 21.412 29.26 32.969 10.387-3.577 14.586-15.885 10.738-26.174-.552-1.544 33.838-25.78 37.351-28.608q17.354-13.972 34.092-28.683c22.328-19.525 48.776-39.048 66.884-62.521a141.2 141.2 0 0 1 -45.015 2.179c-7.037-.788-14.527-3.851-21.464-4.108a21.363 21.363 0 0 0 -2.339.045z" fill="#fad6c6"/><g><path d="m224.093 351.665c10.122 11.556 19.138 21.412 29.26 32.969 10.387-3.577 14.586-15.885 10.738-26.175-.178-.5 3.266-3.344 8.126-7.066l-23.517-23.093c-7.372 7.091-13.183 12.882-24.607 23.365z" fill="#fcc200"/><path d="m291.084 287.339c-7.192-2.136-17.915.149-23.021 5.646a20.719 20.719 0 0 0 -4.1 20.972c-2.733 2.507-5.141 4.744-7.33 6.8l24.154 24.22c9.1-6.711 18.868-13.684 20.655-15.122q8.193-6.6 16.239-13.374a312.865 312.865 0 0 0 -25.694-30.033c-.301.295-.601.588-.903.891z" fill="#00a8e7"/><path d="m313.733 278.979-13.133 11.785-10.56-8.577c3.956-2.71 8.573-7.233 13.107-8.814 4.593-1.604 7.453 2.708 10.586 5.606z" fill="#f98800"/><path d="m328.847 314.083c14.315-9.363 32.21-18.8 36.016-35.473a98.927 98.927 0 0 0 .952-37.715c-9.336-.771-17.338-1.614-26.674-2.385a24.538 24.538 0 0 1 2.9 21.345c-2.154 6.346-6.81 11.477-11.346 16.41l-20.22 21.988c4.716 6.639 10.948 11.844 17.434 16.769-.109-.407 1.053-.532.938-.939z" fill="#f98800"/><g fill="#333"><path d="m321.465 300.011a7.983 7.983 0 0 1 -5.957-2.657 36.833 36.833 0 0 0 -14.486-9.874 8 8 0 0 1 5.591-14.992 52.884 52.884 0 0 1 20.8 14.18 8 8 0 0 1 -5.952 13.343z"/><path d="m359.321 301.07a7.975 7.975 0 0 1 -5.846-2.537l-5.055-5.408a8 8 0 1 1 11.688-10.925l5.056 5.408a8 8 0 0 1 -5.843 13.463z"/><path d="m344.321 317.07a7.975 7.975 0 0 1 -5.846-2.537l-5.055-5.408a8 8 0 1 1 11.688-10.925l5.056 5.408a8 8 0 0 1 -5.843 13.463z"/></g></g><path d="m215 339 56 56-72 56-16-16 32-48-32-32z" fill="#e22526"/><path d="m183 355-64 24 16 16 80-8z" fill="#be202e"/><circle cx="376" cy="144" fill="#fad6c6" r="104"/><circle cx="424" cy="160" fill="#f78663" r="16"/><path d="m353.563 207.962c-21.3-29.717-22.981-71.495-6.5-104.129 13.438-26.608 37.946-46.8 66.011-57.022a104 104 0 1 0 -5.469 196.289c-21.368-4.723-41.239-17.271-54.042-35.138z" fill="#eaaa94"/><path d="m378.32 180.722c-12.528 1.675-25.227-9.328-25.353-21.967s12.351-23.894 24.91-22.469c11.814 1.339 20.463 11.547 26.928 21.526-10.1-27.564-2.213-60.806 19.188-80.9 5.541-5.2 12.784-8.5 19.89-11.7a104 104 0 1 0 -121.153 168.121 188.773 188.773 0 0 0 55.59-52.611z" fill="#ded7cb"/><path d="m456.009 216a8.041 8.041 0 0 1 -1.44-.13l-176-32a8 8 0 1 1 2.862-15.742l176 32a8 8 0 0 1 -1.422 15.872z" fill="#333"/><path d="m376 200a8 8 0 0 1 -8-8v-88a8 8 0 0 1 16 0v88a8 8 0 0 1 -8 8z" fill="#333"/><path d="m313.889 184h12.621a52.468 52.468 0 0 0 31.482-10.494 45.021 45.021 0 0 0 18.008-36.016 45.019 45.019 0 0 1 21.857-38.6l74.143-34.89-21.966-5.966a116.2 116.2 0 0 0 -82.165-34.034 116.2 116.2 0 0 0 -71.339 24.477 104.984 104.984 0 0 0 -40.53 82.868 85.966 85.966 0 0 0 17.193 51.579l6.807 9.076a75.779 75.779 0 0 1 33.889-8z" fill="#e22526"/><path d="m326.627 73.464c30.39-29.362 79.02-37.562 117.64-20.809a116.192 116.192 0 0 0 -76.398-28.655 116.2 116.2 0 0 0 -71.339 24.477 104.984 104.984 0 0 0 -40.53 82.868 85.966 85.966 0 0 0 17.193 51.579l6.807 9.076a75.751 75.751 0 0 1 19.975-6.7c-12.721-38.213-2.452-83.717 26.652-111.836z" fill="#c11a22"/><path d="m440 136a8 8 0 0 1 -8-8v-8a8 8 0 0 1 16 0v8a8 8 0 0 1 -8 8z" fill="#683b11"/><path d="m460.91 171.6c-.448 0-.9-.01-1.345-.031a28.068 28.068 0 0 1 -19.5-8.852 8 8 0 0 1 11.847-10.753 12.85 12.85 0 0 0 17.048.767 8 8 0 0 1 10.833 11.776 27.936 27.936 0 0 1 -18.883 7.093z" fill="#f99c78"/><path d="m488 144h-8a8 8 0 0 1 0-16h8a8 8 0 0 1 0 16z" fill="#fad6c6"/></g></svg>