<svg id="Capa_1" enable-background="new 0 0 512 512" height="512" viewBox="0 0 512 512" width="512" xmlns="http://www.w3.org/2000/svg"><g><g><g><g><path d="m237.779 287.612c0-5.824 1.759-11.236 4.772-15.738v-126.758c0-48.068-38.967-87.036-87.036-87.036h-16.5c-47.962 0-86.843 38.881-86.843 86.843v148.918c2.696-.554 5.488-.846 8.348-.846h173.683c1.206 0 2.397.063 3.576.165z" fill="#a44f3e"/><path d="m71.488 199.289v-27.16c0-7.607 5.054-14.289 12.374-16.36l10.138-2.867v-7.979c0-43.662 32.224-79.793 74.186-85.922-4.137-.604-8.366-.921-12.671-.921h-16.5c-47.962 0-86.843 38.881-86.843 86.843v148.918c2.696-.554 5.488-.846 8.348-.846h33.48v-39.781c-13.896-13.751-22.512-32.83-22.512-53.925z" fill="#883f2e"/><g><path d="m164.458 413.263v-62.183c0-4.228 4.456-6.972 8.231-5.069l65.09 32.799v-85.65c-1.18-.101-2.37-.164-3.576-.164h-173.683c-22.793 0-41.27 18.477-41.27 41.27v119.32c0 9.39 7.612 17.002 17.002 17.002h120.126v-57.324h8.08z" fill="#e41f2d"/></g><g><path d="m50.777 453.585v-119.32c0-22.793 18.477-41.27 41.27-41.27h-31.527c-22.793 0-41.27 18.477-41.27 41.27v119.32c0 9.39 7.612 17.002 17.002 17.002h31.527c-9.39 0-17.002-7.612-17.002-17.002z" fill="#c41926"/></g><path d="m192.456 260.303c-12.607 9.333-28.204 14.859-45.095 14.859-16.891 0-32.487-5.526-45.095-14.859-5.32 3.527-8.832 9.563-8.832 16.425v11.181c0 10.88 8.82 19.7 19.7 19.7h68.455c10.88 0 19.7-8.82 19.7-19.7v-11.181c0-6.862-3.512-12.898-8.833-16.425z" fill="#fd4755"/><path d="m125 287.908v-11.181c0-1.64.223-3.225.6-4.749-8.499-2.541-16.373-6.523-23.334-11.676-5.32 3.527-8.832 9.563-8.832 16.425v11.181c0 10.88 8.82 19.7 19.7 19.7h31.566c-10.88 0-19.7-8.82-19.7-19.7z" fill="#fb2b3a"/><g fill="#fed2a4"><path d="m71.488 199.289v-24.848h-12.231c-12.149 0-21.998 9.849-21.998 21.998v13.374c0 12.149 9.849 21.998 21.998 21.998h19.545c-4.684-9.857-7.314-20.881-7.314-32.522z"/><path d="m235.466 174.441h-12.231v24.847c0 11.641-2.629 22.665-7.314 32.523h19.545c12.149 0 21.998-9.849 21.998-21.998v-13.373c0-12.15-9.849-21.999-21.998-21.999z"/></g><g><path d="m189.691 125.831-105.829 29.939c-7.32 2.071-12.374 8.752-12.374 16.36v27.16c0 41.903 33.969 75.873 75.873 75.873 41.904 0 75.873-33.97 75.873-75.873v-43.437c0-15.644-11.664-28.563-26.769-30.537-2.267-.297-4.574-.108-6.774.515z" fill="#fed2a4"/></g><g><g><path d="m103 199.289v-43.437c0-1.927.179-3.813.518-5.642l-19.655 5.561c-7.32 2.071-12.374 8.752-12.374 16.36v27.16c0 41.903 33.969 75.873 75.873 75.873 5.404 0 10.672-.575 15.756-1.649-34.341-7.256-60.118-37.726-60.118-74.226z" fill="#ffbd86"/></g></g><g><path d="m153.032 250.111h-11.34c-8.808 0-15.949-7.141-15.949-15.949v-8.417c0-2.492 2.02-4.512 4.512-4.512h34.214c2.492 0 4.512 2.02 4.512 4.512v8.417c0 8.808-7.141 15.949-15.949 15.949z" fill="#fe99a0"/></g><g><path d="m146 234.162v-8.417c0-2.492 2.02-4.512 4.512-4.512h-20.258c-2.492 0-4.512 2.02-4.512 4.512v8.417c0 8.809 7.141 15.949 15.949 15.949h11.34c1.549 0 3.042-.232 4.459-.644-6.636-1.931-11.49-8.046-11.49-15.305z" fill="#fd8087"/></g><g><path d="m465.665 259.276h-199.55c-15.65 0-28.336 12.687-28.336 28.336v91.198l16.292 8.21c1.607.81 3.502.81 5.109 0l81.382-41.009c3.775-1.903 8.231.842 8.231 5.069v62.183h8.08v57.324h120.127c9.39 0 17.002-7.612 17.002-17.002v-165.973c0-15.65-12.687-28.336-28.337-28.336z" fill="#08b865"/></g><path d="m254.072 387.02c1.607.81 3.502.81 5.109 0l16.597-8.363v-91.045c0-15.65 12.687-28.336 28.336-28.336h-37.998c-15.65 0-28.336 12.687-28.336 28.336v91.198z" fill="#09a755"/><g><path d="m319.782 453.117v-22.384c0-9.648 7.822-17.47 17.47-17.47h11.542v-62.183c0-4.228-4.456-6.972-8.231-5.069l-81.383 41.009c-1.607.81-3.502.81-5.109 0l-81.382-41.009c-3.775-1.903-8.231.842-8.231 5.069v62.183h11.542c9.648 0 17.47 7.822 17.47 17.47v22.384c0 4.687-1.855 8.932-4.859 12.07l65.125 38.522c1.782 1.054 3.998 1.054 5.78 0l65.125-38.522c-3.003-3.138-4.859-7.383-4.859-12.07z" fill="#fedf30"/><path d="m172.689 346.011c-3.775-1.903-8.231.842-8.231 5.069v62.183h11.542c9.648 0 17.47 7.822 17.47 17.47v22.384c0 4.687-1.856 8.932-4.859 12.07l65.125 38.522c.891.527 1.891.791 2.89.791v-116.873c-.876 0-1.751-.202-2.554-.607z" fill="#fed402"/><path d="m176 413.263c3.297 0 6.369.93 9 2.517v-56.743c0-2.346 1.297-4.253 3.103-5.26l-15.413-7.767c-3.775-1.903-8.231.842-8.231 5.069v62.183h11.541z" fill="#fac600"/></g><path d="m406.392 224.345c-7.958 3.75-16.843 5.857-26.223 5.857h-28.556c-9.38 0-18.266-2.106-26.223-5.857-7.8 2.622-13.426 9.978-13.426 18.662v11.181c0 10.88 8.82 19.7 19.7 19.7h68.455c10.88 0 19.7-8.82 19.7-19.7v-11.181c-.001-8.683-5.627-16.039-13.427-18.662z" fill="#46cc8d"/><path d="m353.145 254.188v-11.181c0-4.893 1.795-9.36 4.748-12.805h-6.281c-9.38 0-18.266-2.106-26.223-5.857-7.8 2.622-13.426 9.978-13.426 18.662v11.181c0 10.88 8.82 19.7 19.7 19.7h41.182c-10.88 0-19.7-8.82-19.7-19.7z" fill="#00c27a"/><g><g><path d="m403.65 45.249v34.845h7.316c17.009 0 30.797 13.635 30.797 30.644v13.178h12.232c3.961 0 7.675 1.052 10.886 2.885v-68.295c0-20.848-16.901-37.749-37.749-37.749h-32.518c5.629 6.593 9.036 15.142 9.036 24.492z" fill="#fe7701"/><path d="m277.786 123.916h12.232v-13.178c0-17.009 13.788-30.644 30.797-30.644h82.835v-34.845c0-20.848-16.901-37.749-37.75-37.749h-90.2c-4.86 0-8.799 3.939-8.799 8.799v110.501c3.21-1.832 6.923-2.884 10.885-2.884z" fill="#fe860a"/><path d="m277.786 123.916h12.232v-13.178c0-7.963 3.023-15.186 7.983-20.617v-73.822c0-4.86 3.94-8.799 8.799-8.799h-31.1c-4.86 0-8.799 3.939-8.799 8.799v110.501c3.21-1.832 6.923-2.884 10.885-2.884z" fill="#fe7701"/></g><g fill="#fed2a4"><path d="m453.995 123.916h-12.232v44.692c0 4.347-.456 8.586-1.313 12.678h13.544c12.149 0 21.998-9.849 21.998-21.998v-13.374c.001-12.149-9.848-21.998-21.997-21.998z"/><path d="m290.017 168.607v-44.692h-12.232c-12.149 0-21.998 9.849-21.998 21.998v13.374c0 12.149 9.849 21.998 21.998 21.998h13.544c-.855-4.092-1.312-8.331-1.312-12.678z"/></g><g><path d="m380.169 230.202h-28.556c-34.018 0-61.595-27.577-61.595-61.595v-57.869c0-17.009 13.789-30.644 30.797-30.644h90.151c17.009 0 30.797 13.635 30.797 30.644v57.869c.001 34.018-27.576 61.595-61.594 61.595z" fill="#fed2a4"/></g><g><path d="m321.254 168.607v-57.869c0-17.009 13.789-30.644 30.797-30.644h-31.236c-17.009 0-30.797 13.635-30.797 30.644v57.869c0 34.018 27.577 61.595 61.595 61.595h28.556c.449 0 .893-.024 1.34-.034-33.397-.715-60.255-27.992-60.255-61.561z" fill="#ffbd86"/></g><g><path d="m372.953 208.696h-14.124c-10.971 0-19.865-8.894-19.865-19.865v-10.483c0-3.104 2.516-5.62 5.62-5.62h42.614c3.104 0 5.62 2.516 5.62 5.62v10.483c-.001 10.971-8.894 19.865-19.865 19.865z" fill="#fe99a0"/></g><g><path d="m359.146 188.831v-10.483c0-3.104 2.516-5.62 5.62-5.62h-20.183c-3.104 0-5.62 2.516-5.62 5.62v10.483c0 10.971 8.894 19.865 19.865 19.865h14.125c1.033 0 2.039-.103 3.029-.255-9.529-1.462-16.836-9.671-16.836-19.61z" fill="#fd8087"/></g></g><g><path d="m337.252 413.263c-9.648 0-17.47 7.822-17.47 17.47v22.384c0 9.649 7.822 17.47 17.47 17.47h19.622v-57.324z" fill="#fed2a4"/></g><g><g><path d="m356.874 413.263h28.126v57.324h-28.126z" fill="#09a755"/></g></g><g><path d="m176 413.263h-19.622v57.324h19.622c9.648 0 17.47-7.822 17.47-17.47v-22.384c0-9.648-7.822-17.47-17.47-17.47z" fill="#fed2a4"/></g></g></g><g><g><g><circle cx="31.313" cy="84.685" fill="#fedf30" r="13.315"/></g><g><g><circle cx="77.937" cy="79.873" fill="#fedf30" r="13.315"/></g></g></g></g></g><g><g><g><circle cx="406.061" cy="344.185" fill="#fed402" r="13.315"/></g><g><g><circle cx="452.685" cy="339.373" fill="#fed402" r="13.315"/></g></g></g></g><g><path d="m164.468 213.732h-34.214c-6.624 0-12.012 5.389-12.012 12.013v8.417c0 12.93 10.519 23.448 23.449 23.448h11.34c12.93 0 23.449-10.519 23.449-23.448v-8.417c0-6.624-5.388-12.013-12.012-12.013zm-2.988 20.43c0 4.658-3.79 8.448-8.449 8.448h-11.34c-4.659 0-8.449-3.79-8.449-8.448v-5.43h28.238z"/><path d="m132.151 199.714 8.779 7.296c1.401 1.164 3.1 1.731 4.79 1.731 2.152 0 4.289-.922 5.772-2.706 2.647-3.187 2.211-7.915-.975-10.563l-3.358-2.79 4.619-6.316c2.445-3.344 1.716-8.036-1.627-10.48-3.344-2.445-8.036-1.718-10.481 1.627l-8.779 12.006c-2.339 3.197-1.787 7.663 1.26 10.195z"/><path d="m111.459 179.238c3.052 0 5.924 1.191 8.087 3.354 1.464 1.464 3.384 2.196 5.303 2.196s3.839-.732 5.303-2.196c2.929-2.93 2.929-7.678 0-10.607-4.996-4.996-11.635-7.747-18.694-7.747s-13.698 2.751-18.694 7.747c-2.929 2.93-2.929 7.678 0 10.607 2.929 2.928 7.678 2.928 10.606 0 2.165-2.162 5.037-3.354 8.089-3.354z"/><path d="m175.176 182.593c2.163-2.163 5.035-3.354 8.087-3.354s5.924 1.191 8.087 3.354c1.464 1.464 3.384 2.196 5.303 2.196s3.839-.732 5.303-2.196c2.929-2.93 2.929-7.678 0-10.607-4.996-4.996-11.635-7.747-18.694-7.747s-13.698 2.751-18.694 7.747c-2.929 2.93-2.929 7.678 0 10.607 2.931 2.928 7.68 2.928 10.608 0z"/><path d="m387.197 165.228h-42.614c-7.234 0-13.12 5.886-13.12 13.12v10.483c0 15.089 12.275 27.364 27.364 27.364h14.125c15.089 0 27.365-12.275 27.365-27.364v-10.483c0-7.235-5.885-13.12-13.12-13.12zm-1.88 23.603c0 6.817-5.547 12.364-12.365 12.364h-14.125c-6.818 0-12.364-5.547-12.364-12.364v-8.604h38.854z"/><path d="m351.976 149.405 8.78 8.779c1.464 1.464 3.384 2.196 5.303 2.196s3.839-.732 5.303-2.197c2.929-2.929 2.929-7.678 0-10.606l-4.615-4.614 5.721-9.414c2.151-3.539 1.025-8.152-2.514-10.304-3.541-2.151-8.153-1.025-10.304 2.515l-8.78 14.447c-1.796 2.954-1.339 6.753 1.106 9.198z"/><path d="m339.882 127.383c2.93 2.928 7.677 2.929 10.607-.001 2.929-2.929 2.928-7.678 0-10.606-10.309-10.307-27.08-10.307-37.388 0-2.929 2.93-2.929 7.678 0 10.607 1.464 1.464 3.384 2.196 5.303 2.196s3.839-.732 5.303-2.196c4.459-4.462 11.715-4.46 16.175 0z"/><path d="m384.904 116.775c-2.929 2.929-2.929 7.678 0 10.606 2.93 2.93 7.678 2.929 10.607.001 4.458-4.46 11.715-4.46 16.175 0 1.465 1.464 3.384 2.196 5.303 2.196s3.839-.732 5.304-2.197c2.929-2.929 2.928-7.678 0-10.606-10.308-10.306-27.08-10.306-37.389 0z"/><path d="m494.002 330.5c4.142 0 7.5-3.357 7.5-7.5v-35.388c0-19.761-16.076-35.837-35.836-35.837h-38.348v-8.768c0-6.999-2.668-13.378-7.026-18.202 12.208-8.741 21.462-21.349 25.957-36.019h7.747c16.265 0 29.498-13.233 29.498-29.499v-13.373c0-9.317-4.346-17.633-11.112-23.042v-64.366c0-24.95-20.299-45.249-45.25-45.249h-29.262c-8.193-8.187-19.5-13.257-31.97-13.257h-90.2c-8.988 0-16.3 7.312-16.3 16.299v106.594c-4.484 3.59-7.915 8.443-9.708 14.033-4.166-48.306-44.809-86.346-94.177-86.346h-16.5c-14.397 0-28.044 3.255-40.263 9.047v-27.228c0-2.881-1.227-5.641-3.366-7.57-2.14-1.93-5.01-2.872-7.875-2.57l-41.233 4.255c-5.216.538-9.149 4.897-9.149 10.142v28.057c-1.848-.539-3.796-.843-5.815-.843-11.478 0-20.815 9.337-20.815 20.814s9.336 20.816 20.814 20.816 20.815-9.338 20.815-20.815v-43.695l31.624-3.265v22.175c-1.848-.539-3.795-.843-5.815-.843-11.478 0-20.815 9.338-20.815 20.815 0 4.498 1.449 8.655 3.883 12.063-10.3 15.114-16.334 33.358-16.334 52.987v25.893c-8.898 5.085-14.913 14.662-14.913 25.624v13.374c0 10.962 6.015 20.539 14.913 25.624v52.716c-19.133 6.595-32.922 24.768-32.922 46.112v119.32c0 13.511 10.992 24.502 24.502 24.502h159.437l54.228 32.076c2.069 1.225 4.389 1.836 6.709 1.836s4.64-.612 6.708-1.836l54.228-32.076h159.439c13.51 0 24.502-10.991 24.502-24.502v-95.585c0-4.143-3.358-7.5-7.5-7.5s-7.5 3.357-7.5 7.5v95.586c0 5.239-4.263 9.502-9.502 9.502h-112.626v-42.324h89.843c4.142 0 7.5-3.357 7.5-7.5v-55.167c6.96-3.371 11.783-10.486 11.783-18.724v-47.474c0-2.881-1.227-5.641-3.366-7.57-2.14-1.93-5.012-2.866-7.875-2.57l-41.233 4.255c-5.216.538-9.149 4.897-9.149 10.142v28.057c-1.848-.539-3.796-.843-5.815-.843-11.478 0-20.815 9.337-20.815 20.814s9.336 20.816 20.814 20.816 20.815-9.338 20.815-20.815v-43.695l31.624-3.265v22.175c-1.848-.539-3.795-.843-5.815-.843-11.478 0-20.815 9.338-20.815 20.815 0 9.403 6.27 17.36 14.847 19.933v46.458h-90.423v-54.683c0-4.608-2.343-8.803-6.267-11.22s-8.724-2.62-12.839-.547l-80.562 40.595-11.347-5.718v-86.578c0-11.489 9.347-20.837 20.836-20.837h41.446c4.55 8.677 13.642 14.612 24.1 14.612h68.456c10.458 0 19.55-5.936 24.1-14.612h41.447c11.489 0 20.836 9.348 20.836 20.837v35.388c.002 4.143 3.36 7.5 7.502 7.5zm-462.689-240c-3.207 0-5.815-2.608-5.815-5.815 0-3.206 2.608-5.814 5.815-5.814s5.815 2.608 5.815 5.814c0 3.207-2.608 5.815-5.815 5.815zm374.748 259.5c-3.207 0-5.815-2.608-5.815-5.815 0-3.206 2.608-5.814 5.815-5.814s5.815 2.608 5.815 5.814c0 3.207-2.608 5.815-5.815 5.815zm46.624-16.442c3.207 0 5.815 2.608 5.815 5.815 0 3.206-2.608 5.814-5.815 5.814s-5.815-2.608-5.815-5.814c0-3.207 2.609-5.815 5.815-5.815zm15.808-187.644v13.373c0 7.995-6.504 14.499-14.498 14.499h-4.932c.128-1.71.2-3.436.2-5.179v-37.191h4.731c7.995 0 14.499 6.504 14.499 14.498zm-41.362-117.657c16.68 0 30.25 13.569 30.25 30.249v58.11c-1.112-.128-2.24-.2-3.386-.2h-4.731v-5.679c0-20.971-17.081-38.04-38.114-38.139v-27.349c0-6.008-1.187-11.742-3.323-16.992zm-152.731-11.958c0-.716.583-1.299 1.299-1.299h90.201c16.679 0 30.249 13.569 30.249 30.249v27.345h-75.334c-21.117 0-38.297 17.111-38.297 38.144v5.679h-4.731c-1.147 0-2.272.089-3.386.217v-100.335zm-11.112 129.615c0-7.994 6.504-14.498 14.499-14.498h4.731v37.191c0 1.743.073 3.468.2 5.179h-4.932c-7.995 0-14.499-6.504-14.499-14.499v-13.373zm-185.351-71.856c3.207 0 5.815 2.608 5.815 5.815 0 3.206-2.608 5.814-5.815 5.814s-5.815-2.608-5.815-5.814c0-3.207 2.608-5.815 5.815-5.815zm-18.265 70.865c0-16.582 5.139-31.97 13.875-44.711 1.417.306 2.883.475 4.39.475 11.478 0 20.815-9.337 20.815-20.814v-3.281c11.81-6.989 25.573-11.011 40.263-11.011h16.5c43.856 0 79.536 35.68 79.536 79.536v21.825h-4.317v-11.09c0-19.169-14.315-35.494-33.295-37.973-3.264-.429-6.557-.181-9.789.735l-105.83 29.939c-8.795 2.488-15.349 9.701-17.251 18.389h-4.897zm143.929 115.854c6.731-6.162 12.449-13.411 16.877-21.465h14.573v30.472c-2.695 4.68-4.371 10.017-4.704 15.712h-21.558v-8.769c0-5.956-1.927-11.467-5.188-15.95zm-124.613-61.488v-27.159c0-4.231 2.844-7.991 6.916-9.144l105.829-29.938c.001 0 .001 0 .002-.001.87-.246 1.741-.37 2.603-.37.388 0 .773.025 1.156.075 11.539 1.507 20.24 11.438 20.24 23.1v43.438c0 37.701-30.672 68.373-68.373 68.373s-68.373-30.673-68.373-68.374zm12.134 61.488c-3.261 4.483-5.188 9.995-5.188 15.95v8.769h-25.414c-.284 0-.565.017-.848.021v-46.206h14.573c4.427 8.055 10.146 15.304 16.877 21.466zm-46.363-64.338c0-7.994 6.504-14.498 14.498-14.498h4.731v17.348c0 8.716 1.351 17.12 3.844 25.022h-8.576c-7.994 0-14.498-6.504-14.498-14.498v-13.374zm112.199 154.641v54.684h-.58-89.843v-58.34c0-4.143-3.358-7.5-7.5-7.5s-7.5 3.357-7.5 7.5v65.84c0 4.143 3.358 7.5 7.5 7.5h89.843v42.324h-112.626c-5.239 0-9.502-4.263-9.502-9.502v-119.32c0-18.62 15.149-33.77 33.77-33.77h28.514c4.55 8.676 13.642 14.611 24.1 14.611h24.866c4.142 0 7.5-3.357 7.5-7.5s-3.358-7.5-7.5-7.5h-24.866c-6.727 0-12.2-5.473-12.2-12.199v-11.181c0-2.544.79-4.903 2.127-6.859 12.845 8.092 28.03 12.794 44.3 12.794s31.455-4.702 44.3-12.794c1.337 1.957 2.127 4.315 2.127 6.859v11.181c0 6.727-5.473 12.199-12.2 12.199h-8.588c-4.142 0-7.5 3.357-7.5 7.5s3.358 7.5 7.5 7.5h8.589c10.458 0 19.55-5.936 24.1-14.611h24.59v66.136l-54.215-27.319c-4.115-2.071-8.914-1.868-12.839.548-3.924 2.416-6.267 6.611-6.267 11.219zm29.012 102.037c0 5.498-4.472 9.971-9.97 9.971h-12.122v-42.324h12.122c5.498 0 9.97 4.473 9.97 9.97zm163.404-32.353v42.324h-12.122c-5.498 0-9.97-4.473-9.97-9.971v-22.384c0-5.497 4.472-9.97 9.97-9.97h12.122zm-100.248-27.838v23.074c0 4.143 3.358 7.5 7.5 7.5s7.5-3.357 7.5-7.5v-23.074l77.168-38.885v51.723h-4.042c-13.769 0-24.97 11.201-24.97 24.97v22.384c0 3.378.695 6.591 1.917 9.533l-50.073 29.619v-41.27c0-4.143-3.358-7.5-7.5-7.5s-7.5 3.357-7.5 7.5v41.269l-50.056-29.609c1.221-2.942 1.899-6.165 1.899-9.543v-22.384c0-13.769-11.201-24.97-24.97-24.97h-4.042v-51.723zm.838-183.113c0 7.994-6.504 14.498-14.498 14.498h-8.576c2.493-7.902 3.844-16.307 3.844-25.022v-17.348h4.732c7.994 0 14.498 6.504 14.498 14.498zm54.499 33.195v8.768h-38.347c-5.774 0-11.229 1.38-16.064 3.817v-20.155c8.898-5.085 14.913-14.662 14.913-25.624v-13.374c0-4.272-.924-8.328-2.565-11.996 4.483 2.752 9.752 4.343 15.387 4.343h7.747c4.494 14.67 13.749 27.278 25.956 36.019-4.36 4.824-7.027 11.203-7.027 18.202zm107.855 11.18c0 6.727-5.473 12.199-12.2 12.199h-68.456c-6.727 0-12.2-5.473-12.2-12.199v-11.181c0-4.45 2.403-8.34 5.971-10.471 8.08 3.321 16.916 5.166 26.178 5.166h28.556c9.263 0 18.099-1.845 26.178-5.166 3.569 2.131 5.971 6.021 5.971 10.471v11.181zm-32.15-31.486h-28.556c-29.828 0-54.095-24.267-54.095-54.095v-57.87c0-12.762 10.451-23.144 23.297-23.144h90.151c12.846 0 23.297 10.382 23.297 23.144v57.87c.002 29.829-24.265 54.095-54.094 54.095z"/></g></g></svg>