<svg xmlns="http://www.w3.org/2000/svg" fill="#fcfcfc" width="94.073" height="94.072"><path d="M91.465 5.491a1.996 1.996 0 00-2.18.434l-8.316 8.316C72.046 5.057 60.125 0 47.399 0c-2.692 0-5.407.235-8.068.697C21.218 3.845 6.542 17.405 1.944 35.244a2 2 0 001.936 2.499h12.738a2 2 0 001.878-1.313c3.729-10.193 12.992-17.971 23.598-19.814a31.022 31.022 0 015.288-.456c8.428 0 16.299 3.374 22.168 9.5l-8.445 8.444a2.001 2.001 0 001.414 3.414H90.7a2 2 0 002-2V7.338c0-.808-.489-1.537-1.235-1.847zm-1.273 50.837H77.455c-.839 0-1.59.523-1.878 1.312-3.729 10.193-12.992 17.972-23.598 19.814a31.03 31.03 0 01-5.288.456c-8.428 0-16.3-3.374-22.168-9.5l8.444-8.444a2 2 0 00-1.414-3.414H3.374a2 2 0 00-2 2v28.181a2 2 0 003.414 1.413l8.316-8.315c8.922 9.183 20.843 14.241 33.569 14.241 2.693 0 5.408-.235 8.069-.697 18.112-3.146 32.789-16.708 37.387-34.547.155-.6.023-1.234-.354-1.725a2.008 2.008 0 00-1.583-.775z"/></svg>